<svg xmlns="http://www.w3.org/2000/svg" viewBox="0 0 128 128"><defs><linearGradient id="gold" x2=".8" y2="1"><stop stop-color="#fff0ba"/><stop offset=".4" stop-color="#dcb774"/><stop offset=".7" stop-color="#9c7138"/><stop offset="1" stop-color="#f1d69a"/></linearGradient></defs><rect width="128" height="128" rx="30" fill="#080807"/><circle cx="64" cy="64" r="49" fill="none" stroke="url(#gold)" stroke-width="2"/><path d="M40 36h15V25l7-9v24l16 17-12 12 13 15-18 19v12l-7 9v-20H36l9-10V45Zm13 9v18h9l7-7-10-11Zm0 26v23h5l12-11-10-12ZM70 25l6-8v19h15l15 17v34l-17 18H75l-5 9V96h14l13-14V56L86 44H76l-6-7Z" transform="translate(-5 1) scale(.98 .9)" fill="url(#gold)" stroke="#f6dda2" stroke-width=".7"/></svg>
